<?xml version="1.0" standalone="no"?>
<!DOCTYPE svg PUBLIC "-//W3C//DTD SVG 20010904//EN"
 "http://www.w3.org/TR/2001/REC-SVG-20010904/DTD/svg10.dtd">
<svg version="1.0" xmlns="http://www.w3.org/2000/svg"
 width="269.000000pt" height="269.000000pt" viewBox="0 0 269.000000 269.000000"
 preserveAspectRatio="xMidYMid meet">

<g transform="translate(0.000000,269.000000) scale(0.100000,-0.100000)"
fill="#000000" stroke="none">
<path d="M970 2636 c-142 -53 -239 -140 -289 -260 -21 -50 -34 -103 -38 -147
l-6 -68 -88 -81 c-86 -79 -162 -178 -193 -254 -24 -59 -52 -179 -66 -283 -11
-83 -15 -95 -46 -129 -73 -77 -109 -196 -101 -334 6 -113 36 -196 105 -299
117 -174 218 -254 483 -387 187 -93 289 -159 393 -254 93 -85 126 -101 215
-102 87 -1 122 16 212 97 114 103 187 151 378 248 277 141 376 216 492 377 93
130 124 235 117 407 -4 124 -27 189 -91 256 -32 35 -36 46 -47 130 -13 97 -42
228 -62 274 -7 16 -36 69 -66 120 -44 75 -74 111 -160 191 -127 117 -183 159
-337 253 -64 38 -140 85 -168 103 -71 45 -252 123 -329 141 -78 18 -259 19
-308 1z m578 -487 c197 -50 340 -164 426 -339 57 -117 84 -222 95 -364 8 -107
9 -110 41 -139 31 -28 35 -29 99 -22 65 6 67 6 96 -25 28 -30 30 -36 30 -114
0 -75 -3 -89 -38 -159 -67 -135 -200 -246 -336 -277 -81 -19 -165 -8 -262 33
-46 20 -104 43 -128 52 -56 19 -151 19 -198 0 -33 -14 -40 -14 -80 1 -65 25
-152 15 -254 -31 -135 -59 -165 -67 -256 -63 -109 6 -208 53 -297 142 -97 98
-166 252 -150 338 16 85 67 125 137 107 30 -8 50 -8 69 -1 46 19 61 54 69 166
10 139 32 222 90 344 83 172 195 272 372 333 150 52 319 58 475 18z m10 -1560
c-70 -126 -210 -179 -320 -123 -40 21 -95 78 -118 124 l-20 40 240 0 241 0
-23 -41z"/>
<path d="M670 1235 l0 -235 300 0 300 0 0 85 0 85 70 0 70 0 0 -85 0 -85 300
0 300 0 0 235 0 235 -300 0 -300 0 0 -85 0 -85 -70 0 -70 0 0 85 0 85 -300 0
-300 0 0 -235z m450 -10 l0 -115 -150 0 -150 0 0 115 0 115 150 0 150 0 0
-115z m740 0 l0 -115 -150 0 -150 0 0 115 0 115 150 0 150 0 0 -115z"/>
</g>
</svg>
